<?xml version="1.0" encoding="UTF-8" standalone="no"?>
<!DOCTYPE svg PUBLIC "-//W3C//DTD SVG 1.1//EN"
 "http://www.w3.org/Graphics/SVG/1.1/DTD/svg11.dtd">
<!-- Generated by graphviz version 2.43.0 (0)
 -->
<!-- Title: AprilTagPrecisionLandingFSM Pages: 1 -->
<svg width="1412pt" height="1597pt"
 viewBox="0.00 0.00 1411.90 1596.97" xmlns="http://www.w3.org/2000/svg" xmlns:xlink="http://www.w3.org/1999/xlink">
<g id="graph0" class="graph" transform="scale(1 1) rotate(0) translate(25.2 1571.77)">
<title>AprilTagPrecisionLandingFSM</title>
<polygon fill="white" stroke="transparent" points="-25.2,25.2 -25.2,-1571.77 1386.7,-1571.77 1386.7,25.2 -25.2,25.2"/>
<text text-anchor="middle" x="680.75" y="-1523.37" font-family="Arial" font-size="24.00">AprilTag Precision Landing Finite State Machine</text>
<!-- start -->
<g id="node1" class="node">
<title>start</title>
<ellipse fill="#dcfce7" stroke="#166534" stroke-width="2" cx="723.5" cy="-1484.28" rx="63.78" ry="28.07"/>
<text text-anchor="middle" x="723.5" y="-1479.28" font-family="Arial" font-size="20.00">START</text>
</g>
<!-- init -->
<g id="node2" class="node">
<title>init</title>
<path fill="#f8fafc" stroke="#334155" stroke-width="2" d="M837.5,-1393C837.5,-1393 609.5,-1393 609.5,-1393 603.5,-1393 597.5,-1387 597.5,-1381 597.5,-1381 597.5,-1343 597.5,-1343 597.5,-1337 603.5,-1331 609.5,-1331 609.5,-1331 837.5,-1331 837.5,-1331 843.5,-1331 849.5,-1337 849.5,-1343 849.5,-1343 849.5,-1381 849.5,-1381 849.5,-1387 843.5,-1393 837.5,-1393"/>
<text text-anchor="middle" x="723.5" y="-1368" font-family="Arial" font-size="20.00">INIT</text>
<text text-anchor="middle" x="723.5" y="-1346" font-family="Arial" font-size="20.00">publish warmup setpoints</text>
</g>
<!-- start&#45;&gt;init -->
<g id="edge1" class="edge">
<title>start&#45;&gt;init</title>
<path fill="none" stroke="#334155" stroke-width="1.8" d="M723.5,-1455.99C723.5,-1439.91 723.5,-1419.3 723.5,-1401.58"/>
<polygon fill="#334155" stroke="#334155" stroke-width="1.8" points="726.3,-1401.14 723.5,-1393.14 720.7,-1401.14 726.3,-1401.14"/>
</g>
<!-- takeoff -->
<g id="node3" class="node">
<title>takeoff</title>
<path fill="#f8fafc" stroke="#334155" stroke-width="2" d="M851.5,-1252C851.5,-1252 595.5,-1252 595.5,-1252 589.5,-1252 583.5,-1246 583.5,-1240 583.5,-1240 583.5,-1202 583.5,-1202 583.5,-1196 589.5,-1190 595.5,-1190 595.5,-1190 851.5,-1190 851.5,-1190 857.5,-1190 863.5,-1196 863.5,-1202 863.5,-1202 863.5,-1240 863.5,-1240 863.5,-1246 857.5,-1252 851.5,-1252"/>
<text text-anchor="middle" x="723.5" y="-1227" font-family="Arial" font-size="20.00">TAKEOFF</text>
<text text-anchor="middle" x="723.5" y="-1205" font-family="Arial" font-size="20.00">arm + climb to cruise altitude</text>
</g>
<!-- init&#45;&gt;takeoff -->
<g id="edge2" class="edge">
<title>init&#45;&gt;takeoff</title>
<path fill="none" stroke="#334155" stroke-width="1.8" d="M723.5,-1330.84C723.5,-1310.17 723.5,-1282.57 723.5,-1260.33"/>
<polygon fill="#334155" stroke="#334155" stroke-width="1.8" points="726.3,-1260.1 723.5,-1252.1 720.7,-1260.1 726.3,-1260.1"/>
<text text-anchor="middle" x="795" y="-1288" font-family="Arial" font-size="15.00">WARMUP_SEC done</text>
</g>
<!-- retry -->
<g id="node4" class="node">
<title>retry</title>
<path fill="#fef3c7" stroke="#92400e" stroke-width="2" d="M752,-1100C752,-1100 567,-1100 567,-1100 561,-1100 555,-1094 555,-1088 555,-1088 555,-1072 555,-1072 555,-1066 561,-1060 567,-1060 567,-1060 752,-1060 752,-1060 758,-1060 764,-1066 764,-1072 764,-1072 764,-1088 764,-1088 764,-1094 758,-1100 752,-1100"/>
<text text-anchor="middle" x="659.5" y="-1075" font-family="Arial" font-size="20.00">Retry Offboard / Arm</text>
</g>
<!-- takeoff&#45;&gt;retry -->
<g id="edge3" class="edge">
<title>takeoff&#45;&gt;retry</title>
<path fill="none" stroke="#334155" stroke-width="1.8" d="M709.61,-1189.84C698.38,-1165.45 682.72,-1131.42 671.9,-1107.94"/>
<polygon fill="#334155" stroke="#334155" stroke-width="1.8" points="674.32,-1106.5 668.43,-1100.41 669.24,-1108.84 674.32,-1106.5"/>
<text text-anchor="middle" x="777.5" y="-1147" font-family="Arial" font-size="15.00">not armed / not Offboard</text>
</g>
<!-- gimbal -->
<g id="node5" class="node">
<title>gimbal</title>
<path fill="#f8fafc" stroke="#334155" stroke-width="2" d="M1047.5,-1111C1047.5,-1111 835.5,-1111 835.5,-1111 829.5,-1111 823.5,-1105 823.5,-1099 823.5,-1099 823.5,-1061 823.5,-1061 823.5,-1055 829.5,-1049 835.5,-1049 835.5,-1049 1047.5,-1049 1047.5,-1049 1053.5,-1049 1059.5,-1055 1059.5,-1061 1059.5,-1061 1059.5,-1099 1059.5,-1099 1059.5,-1105 1053.5,-1111 1047.5,-1111"/>
<text text-anchor="middle" x="941.5" y="-1086" font-family="Arial" font-size="20.00">GIMBAL_DOWN</text>
<text text-anchor="middle" x="941.5" y="-1064" font-family="Arial" font-size="20.00">pitch camera to &#45;90 deg</text>
</g>
<!-- takeoff&#45;&gt;gimbal -->
<g id="edge5" class="edge">
<title>takeoff&#45;&gt;gimbal</title>
<path fill="none" stroke="#334155" stroke-width="1.8" d="M796.63,-1189.86C833.92,-1174.49 871.5,-1159 871.5,-1159 871.5,-1159 890.62,-1137.7 908.87,-1117.35"/>
<polygon fill="#334155" stroke="#334155" stroke-width="1.8" points="910.98,-1119.2 914.24,-1111.38 906.81,-1115.46 910.98,-1119.2"/>
<text text-anchor="middle" x="935" y="-1147" font-family="Arial" font-size="15.00">altitude ~= 5m</text>
</g>
<!-- retry&#45;&gt;takeoff -->
<g id="edge4" class="edge">
<title>retry&#45;&gt;takeoff</title>
<path fill="none" stroke="#334155" stroke-width="1.8" d="M663.7,-1100.28C668.74,-1123.38 676.5,-1159 676.5,-1159 676.5,-1159 685.31,-1170.44 695.31,-1183.41"/>
<polygon fill="#334155" stroke="#334155" stroke-width="1.8" points="693.17,-1185.23 700.28,-1189.86 697.61,-1181.81 693.17,-1185.23"/>
</g>
<!-- search -->
<g id="node6" class="node">
<title>search</title>
<path fill="#f8fafc" stroke="#334155" stroke-width="2" d="M1073.5,-970C1073.5,-970 809.5,-970 809.5,-970 803.5,-970 797.5,-964 797.5,-958 797.5,-958 797.5,-920 797.5,-920 797.5,-914 803.5,-908 809.5,-908 809.5,-908 1073.5,-908 1073.5,-908 1079.5,-908 1085.5,-914 1085.5,-920 1085.5,-920 1085.5,-958 1085.5,-958 1085.5,-964 1079.5,-970 1073.5,-970"/>
<text text-anchor="middle" x="941.5" y="-945" font-family="Arial" font-size="20.00">SEARCH</text>
<text text-anchor="middle" x="941.5" y="-923" font-family="Arial" font-size="20.00">camera&#45;based search pattern</text>
</g>
<!-- gimbal&#45;&gt;search -->
<g id="edge6" class="edge">
<title>gimbal&#45;&gt;search</title>
<path fill="none" stroke="#334155" stroke-width="1.8" d="M941.5,-1048.84C941.5,-1028.17 941.5,-1000.57 941.5,-978.33"/>
<polygon fill="#334155" stroke="#334155" stroke-width="1.8" points="944.3,-978.1 941.5,-970.1 938.7,-978.1 944.3,-978.1"/>
<text text-anchor="middle" x="988" y="-1006" font-family="Arial" font-size="15.00">gimbal settled</text>
</g>
<!-- search&#45;&gt;search -->
<g id="edge7" class="edge">
<title>search&#45;&gt;search</title>
<path fill="none" stroke="#334155" stroke-width="1.8" d="M1085.6,-951.5C1113.07,-950 1132.5,-945.84 1132.5,-939 1132.5,-932.86 1116.82,-928.87 1093.71,-927.04"/>
<polygon fill="#334155" stroke="#334155" stroke-width="1.8" points="1093.76,-924.24 1085.6,-926.5 1093.39,-929.83 1093.76,-924.24"/>
<text text-anchor="middle" x="1208.5" y="-935.5" font-family="Arial" font-size="15.00">selected tag not visible</text>
</g>
<!-- approach -->
<g id="node7" class="node">
<title>approach</title>
<path fill="#f8fafc" stroke="#334155" stroke-width="2" d="M774,-829C774,-829 521,-829 521,-829 515,-829 509,-823 509,-817 509,-817 509,-779 509,-779 509,-773 515,-767 521,-767 521,-767 774,-767 774,-767 780,-767 786,-773 786,-779 786,-779 786,-817 786,-817 786,-823 780,-829 774,-829"/>
<text text-anchor="middle" x="647.5" y="-804" font-family="Arial" font-size="20.00">HORIZONTAL_APPROACH</text>
<text text-anchor="middle" x="647.5" y="-782" font-family="Arial" font-size="20.00">center selected tag in image</text>
</g>
<!-- search&#45;&gt;approach -->
<g id="edge8" class="edge">
<title>search&#45;&gt;approach</title>
<path fill="none" stroke="#334155" stroke-width="1.8" d="M877.71,-907.84C830.8,-885.66 767.04,-855.52 718.52,-832.58"/>
<polygon fill="#334155" stroke="#334155" stroke-width="1.8" points="719.6,-829.99 711.17,-829.1 717.2,-835.05 719.6,-829.99"/>
<text text-anchor="middle" x="908" y="-865" font-family="Arial" font-size="15.00">selected target_tag_id visible</text>
</g>
<!-- timeout -->
<g id="node15" class="node">
<title>timeout</title>
<path fill="#fee2e2" stroke="#991b1b" stroke-width="2" d="M1349.5,-736C1349.5,-736 1195.5,-736 1195.5,-736 1189.5,-736 1183.5,-730 1183.5,-724 1183.5,-724 1183.5,-686 1183.5,-686 1183.5,-680 1189.5,-674 1195.5,-674 1195.5,-674 1349.5,-674 1349.5,-674 1355.5,-674 1361.5,-680 1361.5,-686 1361.5,-686 1361.5,-724 1361.5,-724 1361.5,-730 1355.5,-736 1349.5,-736"/>
<text text-anchor="middle" x="1272.5" y="-711" font-family="Arial" font-size="20.00">Normal PX4 land</text>
<text text-anchor="middle" x="1272.5" y="-689" font-family="Arial" font-size="20.00">search timeout</text>
</g>
<!-- search&#45;&gt;timeout -->
<g id="edge9" class="edge">
<title>search&#45;&gt;timeout</title>
<path fill="none" stroke="#334155" stroke-width="1.8" d="M990.61,-907.93C1043.3,-875.66 1119.5,-829 1119.5,-829 1119.5,-829 1183.6,-777.47 1228.83,-741.11"/>
<polygon fill="#334155" stroke="#334155" stroke-width="1.8" points="1230.59,-743.28 1235.07,-736.09 1227.08,-738.92 1230.59,-743.28"/>
<text text-anchor="middle" x="1136" y="-865" font-family="Arial" font-size="15.00">SEARCH_TIMEOUT</text>
</g>
<!-- approach&#45;&gt;approach -->
<g id="edge11" class="edge">
<title>approach&#45;&gt;approach</title>
<path fill="none" stroke="#334155" stroke-width="1.8" d="M786.24,-810.56C813.56,-809.13 833,-804.94 833,-798 833,-791.77 817.31,-787.75 794.31,-785.96"/>
<polygon fill="#334155" stroke="#334155" stroke-width="1.8" points="794.4,-783.16 786.24,-785.44 794.04,-788.75 794.4,-783.16"/>
<text text-anchor="middle" x="979" y="-803" font-family="Arial" font-size="15.00">fresh selected&#45;tag frame</text>
<text text-anchor="middle" x="979" y="-786" font-family="Arial" font-size="15.00">update target + stream LANDING_TARGET</text>
</g>
<!-- descend -->
<g id="node8" class="node">
<title>descend</title>
<path fill="#f8fafc" stroke="#334155" stroke-width="2" d="M271,-643C271,-643 12,-643 12,-643 6,-643 0,-637 0,-631 0,-631 0,-593 0,-593 0,-587 6,-581 12,-581 12,-581 271,-581 271,-581 277,-581 283,-587 283,-593 283,-593 283,-631 283,-631 283,-637 277,-643 271,-643"/>
<text text-anchor="middle" x="141.5" y="-618" font-family="Arial" font-size="20.00">DESCEND_OVER_TARGET</text>
<text text-anchor="middle" x="141.5" y="-596" font-family="Arial" font-size="20.00">descend while correcting XY</text>
</g>
<!-- approach&#45;&gt;descend -->
<g id="edge12" class="edge">
<title>approach&#45;&gt;descend</title>
<path fill="none" stroke="#334155" stroke-width="1.8" d="M508.68,-770.87C420.75,-754.31 323.5,-736 323.5,-736 323.5,-736 253.5,-674 253.5,-674 253.5,-674 229.74,-661.06 204.11,-647.1"/>
<polygon fill="#334155" stroke="#334155" stroke-width="1.8" points="205.21,-644.51 196.84,-643.14 202.53,-649.43 205.21,-644.51"/>
<text text-anchor="middle" x="434.5" y="-710" font-family="Arial" font-size="15.00">visual_error &lt; PLD_HACC_RAD</text>
<text text-anchor="middle" x="434.5" y="-693" font-family="Arial" font-size="15.00">for CENTER_CONFIRM_COUNT</text>
</g>
<!-- lost -->
<g id="node9" class="node">
<title>lost</title>
<path fill="#f8fafc" stroke="#334155" stroke-width="2" d="M706,-502C706,-502 487,-502 487,-502 481,-502 475,-496 475,-490 475,-490 475,-452 475,-452 475,-446 481,-440 487,-440 487,-440 706,-440 706,-440 712,-440 718,-446 718,-452 718,-452 718,-490 718,-490 718,-496 712,-502 706,-502"/>
<text text-anchor="middle" x="596.5" y="-477" font-family="Arial" font-size="20.00">TARGET_LOST</text>
<text text-anchor="middle" x="596.5" y="-455" font-family="Arial" font-size="20.00">recovery on selected tag</text>
</g>
<!-- approach&#45;&gt;lost -->
<g id="edge13" class="edge">
<title>approach&#45;&gt;lost</title>
<path fill="none" stroke="#334155" stroke-width="1.8" d="M670.34,-766.94C704.39,-722.12 764.5,-643 764.5,-643 764.5,-643 764.5,-581 764.5,-581 764.5,-581 698.9,-538.43 649.68,-506.5"/>
<polygon fill="#334155" stroke="#334155" stroke-width="1.8" points="651.09,-504.08 642.85,-502.07 648.04,-508.78 651.09,-504.08"/>
<text text-anchor="middle" x="852.5" y="-608.5" font-family="Arial" font-size="15.00">target lost / bad correction</text>
</g>
<!-- approach&#45;&gt;lost -->
<g id="edge14" class="edge">
<title>approach&#45;&gt;lost</title>
<path fill="none" stroke="#334155" stroke-width="1.8" d="M706.84,-766.94C795.31,-722.12 951.5,-643 951.5,-643 951.5,-643 951.5,-581 951.5,-581 951.5,-581 806.85,-536.59 702.22,-504.46"/>
<polygon fill="#334155" stroke="#334155" stroke-width="1.8" points="702.91,-501.74 694.45,-502.07 701.27,-507.1 702.91,-501.74"/>
<text text-anchor="middle" x="1012" y="-608.5" font-family="Arial" font-size="15.00">ALIGN_TIMEOUT</text>
</g>
<!-- descend&#45;&gt;approach -->
<g id="edge16" class="edge">
<title>descend&#45;&gt;approach</title>
<path fill="none" stroke="#334155" stroke-width="1.8" d="M144.44,-643.09C147.99,-679.5 153.5,-736 153.5,-736 153.5,-736 355.09,-760.89 500.71,-778.87"/>
<polygon fill="#334155" stroke="#334155" stroke-width="1.8" points="500.62,-781.68 508.91,-779.89 501.31,-776.13 500.62,-781.68"/>
<text text-anchor="middle" x="198" y="-701.5" font-family="Arial" font-size="15.00">drift too large</text>
</g>
<!-- descend&#45;&gt;descend -->
<g id="edge15" class="edge">
<title>descend&#45;&gt;descend</title>
<path fill="none" stroke="#334155" stroke-width="1.8" d="M283.3,-624.52C310.63,-623.04 330,-618.87 330,-612 330,-605.83 314.37,-601.83 291.37,-600.01"/>
<polygon fill="#334155" stroke="#334155" stroke-width="1.8" points="291.47,-597.21 283.3,-599.48 291.1,-602.8 291.47,-597.21"/>
<text text-anchor="middle" x="422.5" y="-617" font-family="Arial" font-size="15.00">correct XY + descend</text>
<text text-anchor="middle" x="422.5" y="-600" font-family="Arial" font-size="15.00">stream LANDING_TARGET</text>
</g>
<!-- descend&#45;&gt;lost -->
<g id="edge17" class="edge">
<title>descend&#45;&gt;lost</title>
<path fill="none" stroke="#334155" stroke-width="1.8" d="M216.23,-580.95C270.88,-558.98 335.5,-533 335.5,-533 335.5,-533 401.29,-517.62 466.8,-502.31"/>
<polygon fill="#334155" stroke="#334155" stroke-width="1.8" points="467.63,-504.99 474.79,-500.45 466.36,-499.54 467.63,-504.99"/>
<text text-anchor="middle" x="448.5" y="-538" font-family="Arial" font-size="15.00">target lost / correction unavailable</text>
</g>
<!-- final -->
<g id="node11" class="node">
<title>final</title>
<path fill="#f8fafc" stroke="#334155" stroke-width="2" d="M236.5,-361C236.5,-361 44.5,-361 44.5,-361 38.5,-361 32.5,-355 32.5,-349 32.5,-349 32.5,-311 32.5,-311 32.5,-305 38.5,-299 44.5,-299 44.5,-299 236.5,-299 236.5,-299 242.5,-299 248.5,-305 248.5,-311 248.5,-311 248.5,-349 248.5,-349 248.5,-355 242.5,-361 236.5,-361"/>
<text text-anchor="middle" x="140.5" y="-336" font-family="Arial" font-size="20.00">FINAL_APPROACH</text>
<text text-anchor="middle" x="140.5" y="-314" font-family="Arial" font-size="20.00">continue near ground</text>
</g>
<!-- descend&#45;&gt;final -->
<g id="edge18" class="edge">
<title>descend&#45;&gt;final</title>
<path fill="none" stroke="#334155" stroke-width="1.8" d="M125.19,-580.86C116.88,-565.49 108.5,-550 108.5,-550 108.5,-550 108.5,-533 108.5,-533 108.5,-533 125.18,-427.73 134.45,-369.18"/>
<polygon fill="#334155" stroke="#334155" stroke-width="1.8" points="137.22,-369.58 135.71,-361.24 131.69,-368.7 137.22,-369.58"/>
<text text-anchor="middle" x="221" y="-467.5" font-family="Arial" font-size="15.00">altitude &lt;= PLD_FAPPR_ALT</text>
</g>
<!-- lost&#45;&gt;approach -->
<g id="edge19" class="edge">
<title>lost&#45;&gt;approach</title>
<path fill="none" stroke="#334155" stroke-width="1.8" d="M592.09,-502.07C587.35,-534.34 580.5,-581 580.5,-581 580.5,-581 580.5,-643 580.5,-643 580.5,-643 611.39,-714 631.22,-759.58"/>
<polygon fill="#334155" stroke="#334155" stroke-width="1.8" points="628.66,-760.72 634.42,-766.94 633.8,-758.49 628.66,-760.72"/>
<text text-anchor="middle" x="667" y="-608.5" font-family="Arial" font-size="15.00">reacquired from approach</text>
</g>
<!-- lost&#45;&gt;descend -->
<g id="edge20" class="edge">
<title>lost&#45;&gt;descend</title>
<path fill="none" stroke="#334155" stroke-width="1.8" d="M474.9,-487.55C333.58,-505.62 119.5,-533 119.5,-533 119.5,-533 119.5,-550 119.5,-550 119.5,-550 123.33,-560.62 127.8,-573"/>
<polygon fill="#334155" stroke="#334155" stroke-width="1.8" points="125.28,-574.28 130.63,-580.86 130.55,-572.38 125.28,-574.28"/>
<text text-anchor="middle" x="201" y="-538" font-family="Arial" font-size="15.00">reacquired from descent</text>
</g>
<!-- grace -->
<g id="node10" class="node">
<title>grace</title>
<path fill="#fef3c7" stroke="#92400e" stroke-width="2" d="M994.5,-361C994.5,-361 826.5,-361 826.5,-361 820.5,-361 814.5,-355 814.5,-349 814.5,-349 814.5,-311 814.5,-311 814.5,-305 820.5,-299 826.5,-299 826.5,-299 994.5,-299 994.5,-299 1000.5,-299 1006.5,-305 1006.5,-311 1006.5,-311 1006.5,-349 1006.5,-349 1006.5,-355 1000.5,-361 994.5,-361"/>
<text text-anchor="middle" x="910.5" y="-336" font-family="Arial" font-size="20.00">Continue slowly</text>
<text text-anchor="middle" x="910.5" y="-314" font-family="Arial" font-size="20.00">on last good target</text>
</g>
<!-- lost&#45;&gt;grace -->
<g id="edge21" class="edge">
<title>lost&#45;&gt;grace</title>
<path fill="none" stroke="#334155" stroke-width="1.8" d="M630.52,-439.84C655.29,-417.89 684.5,-392 684.5,-392 684.5,-392 747.07,-375.11 806.37,-359.11"/>
<polygon fill="#334155" stroke="#334155" stroke-width="1.8" points="807.33,-361.75 814.33,-356.96 805.87,-356.34 807.33,-361.75"/>
<text text-anchor="middle" x="755" y="-397" font-family="Arial" font-size="15.00">during descent grace</text>
</g>
<!-- lost&#45;&gt;final -->
<g id="edge23" class="edge">
<title>lost&#45;&gt;final</title>
<path fill="none" stroke="#334155" stroke-width="1.8" d="M481.71,-439.95C422.89,-424.55 363.5,-409 363.5,-409 363.5,-409 295.19,-385.11 234.18,-363.77"/>
<polygon fill="#334155" stroke="#334155" stroke-width="1.8" points="234.87,-361.04 226.4,-361.05 233.03,-366.33 234.87,-361.04"/>
<text text-anchor="middle" x="430" y="-397" font-family="Arial" font-size="15.00">low altitude reached</text>
</g>
<!-- land -->
<g id="node12" class="node">
<title>land</title>
<path fill="#f8fafc" stroke="#334155" stroke-width="2" d="M615,-220C615,-220 448,-220 448,-220 442,-220 436,-214 436,-208 436,-208 436,-170 436,-170 436,-164 442,-158 448,-158 448,-158 615,-158 615,-158 621,-158 627,-164 627,-170 627,-170 627,-208 627,-208 627,-214 621,-220 615,-220"/>
<text text-anchor="middle" x="531.5" y="-195" font-family="Arial" font-size="20.00">LAND</text>
<text text-anchor="middle" x="531.5" y="-173" font-family="Arial" font-size="20.00">PX4 land + disarm</text>
</g>
<!-- lost&#45;&gt;land -->
<g id="edge24" class="edge">
<title>lost&#45;&gt;land</title>
<path fill="none" stroke="#334155" stroke-width="1.8" d="M585.19,-439.93C573.05,-407.66 555.5,-361 555.5,-361 555.5,-361 543.95,-278.69 536.87,-228.28"/>
<polygon fill="#334155" stroke="#334155" stroke-width="1.8" points="539.62,-227.71 535.74,-220.18 534.07,-228.49 539.62,-227.71"/>
<text text-anchor="middle" x="673.5" y="-326.5" font-family="Arial" font-size="15.00">lost too long / max search attempts</text>
</g>
<!-- grace&#45;&gt;lost -->
<g id="edge22" class="edge">
<title>grace&#45;&gt;lost</title>
<path fill="none" stroke="#334155" stroke-width="1.8" d="M880.12,-361.38C858.22,-383.28 832.5,-409 832.5,-409 832.5,-409 777.63,-423.18 720.8,-437.87"/>
<polygon fill="#334155" stroke="#334155" stroke-width="1.8" points="719.82,-435.23 712.77,-439.95 721.22,-440.66 719.82,-435.23"/>
<text text-anchor="middle" x="918" y="-397" font-family="Arial" font-size="15.00">keep checking target</text>
</g>
<!-- final&#45;&gt;final -->
<g id="edge25" class="edge">
<title>final&#45;&gt;final</title>
<path fill="none" stroke="#334155" stroke-width="1.8" d="M248.79,-342.93C275.54,-342 295.5,-337.69 295.5,-330 295.5,-323.12 279.53,-318.95 257.01,-317.47"/>
<polygon fill="#334155" stroke="#334155" stroke-width="1.8" points="256.92,-314.67 248.79,-317.07 256.64,-320.26 256.92,-314.67"/>
<text text-anchor="middle" x="381" y="-335" font-family="Arial" font-size="15.00">target visible: update</text>
<text text-anchor="middle" x="381" y="-318" font-family="Arial" font-size="15.00">not visible: use last target</text>
</g>
<!-- final&#45;&gt;land -->
<g id="edge26" class="edge">
<title>final&#45;&gt;land</title>
<path fill="none" stroke="#334155" stroke-width="1.8" d="M225.34,-298.84C288.36,-276.43 374.26,-245.9 439.03,-222.87"/>
<polygon fill="#334155" stroke="#334155" stroke-width="1.8" points="440.22,-225.42 446.82,-220.1 438.35,-220.14 440.22,-225.42"/>
<text text-anchor="middle" x="413" y="-256" font-family="Arial" font-size="15.00">altitude ~= 0.1m</text>
</g>
<!-- land&#45;&gt;land -->
<g id="edge27" class="edge">
<title>land&#45;&gt;land</title>
<path fill="none" stroke="#334155" stroke-width="1.8" d="M627.07,-202.05C653.64,-201.45 674,-197.1 674,-189 674,-181.75 657.71,-177.51 635.25,-176.26"/>
<polygon fill="#334155" stroke="#334155" stroke-width="1.8" points="635.17,-173.46 627.07,-175.95 634.95,-179.05 635.17,-173.46"/>
<text text-anchor="middle" x="760" y="-185.5" font-family="Arial" font-size="15.00">send NAV_LAND / disarm</text>
</g>
<!-- force -->
<g id="node13" class="node">
<title>force</title>
<path fill="#fee2e2" stroke="#991b1b" stroke-width="2" d="M632,-62C632,-62 431,-62 431,-62 425,-62 419,-56 419,-50 419,-50 419,-12 419,-12 419,-6 425,0 431,0 431,0 632,0 632,0 638,0 644,-6 644,-12 644,-12 644,-50 644,-50 644,-56 638,-62 632,-62"/>
<text text-anchor="middle" x="531.5" y="-37" font-family="Arial" font-size="20.00">Force disarm fallback</text>
<text text-anchor="middle" x="531.5" y="-15" font-family="Arial" font-size="20.00">if PX4 says not landed</text>
</g>
<!-- land&#45;&gt;force -->
<g id="edge28" class="edge">
<title>land&#45;&gt;force</title>
<path fill="none" stroke="#334155" stroke-width="1.8" d="M531.5,-157.92C531.5,-132.97 531.5,-97.33 531.5,-70.33"/>
<polygon fill="#334155" stroke="#334155" stroke-width="1.8" points="534.3,-70.25 531.5,-62.25 528.7,-70.25 534.3,-70.25"/>
<text text-anchor="middle" x="636" y="-115" font-family="Arial" font-size="15.00">still says not landed</text>
<text text-anchor="middle" x="636" y="-98" font-family="Arial" font-size="15.00">after FORCE_DISARM_DELAY</text>
</g>
<!-- done -->
<g id="node14" class="node">
<title>done</title>
<ellipse fill="#dcfce7" stroke="#166534" stroke-width="2" cx="1146.5" cy="-31" rx="59.29" ry="28.07"/>
<text text-anchor="middle" x="1146.5" y="-26" font-family="Arial" font-size="20.00">DONE</text>
</g>
<!-- land&#45;&gt;done -->
<g id="edge30" class="edge">
<title>land&#45;&gt;done</title>
<path fill="none" stroke="#334155" stroke-width="1.8" d="M627.26,-163.71C755.87,-131.09 980.57,-74.09 1087.15,-47.05"/>
<polygon fill="#334155" stroke="#334155" stroke-width="1.8" points="1087.86,-49.76 1094.93,-45.08 1086.49,-44.33 1087.86,-49.76"/>
<text text-anchor="middle" x="924.5" y="-106.5" font-family="Arial" font-size="15.00">disarmed</text>
</g>
<!-- force&#45;&gt;land -->
<g id="edge29" class="edge">
<title>force&#45;&gt;land</title>
<path fill="none" stroke="#334155" stroke-width="1.8" d="M526.56,-62.14C524.04,-77.51 521.5,-93 521.5,-93 521.5,-93 521.5,-127 521.5,-127 521.5,-127 523.21,-137.42 525.21,-149.65"/>
<polygon fill="#334155" stroke="#334155" stroke-width="1.8" points="522.5,-150.42 526.56,-157.86 528.03,-149.51 522.5,-150.42"/>
</g>
<!-- timeout&#45;&gt;done -->
<g id="edge10" class="edge">
<title>timeout&#45;&gt;done</title>
<path fill="none" stroke="#334155" stroke-width="1.8" d="M1279.46,-673.62C1290.18,-626.84 1309.5,-542.5 1309.5,-542.5 1309.5,-542.5 1309.5,-542.5 1309.5,-188 1309.5,-188 1225.62,-107.72 1178.2,-62.34"/>
<polygon fill="#334155" stroke="#334155" stroke-width="1.8" points="1180.04,-60.23 1172.33,-56.72 1176.17,-64.27 1180.04,-60.23"/>
</g>
</g>
</svg>
